<!-- TODO: Remove xmlns and fill stroke -->
<svg xmlns="http://www.w3.org/2000/svg" viewBox="0 0 50 50"><path fill="#DEBB3F" stroke="#000" stroke-width="2" d="m22 9 8 3c3 1 6 3 7 5 5 8 3 18-4 22-3 2-7 2-10 2a16 16 0 0 1-8-30 21 21 0 0 1 7-2Z"/><circle cx="27.1" cy="24" r="16" fill="#DEBB3F" stroke="#000" stroke-width="2"/><path stroke="#000" stroke-width="2" d="M27 8v31M38 24a21 21 0 0 1-3 2c-2 1-5 3-8 3s-6-2-8-3a23 23 0 0 1-3-2 20 20 0 0 1 3-2c2-1 5-3 8-3s6 2 8 3a23 23 0 0 1 3 2Z"/><ellipse cx="26.9" cy="24.1" fill="#000" rx="2.8" ry="4.7"/></svg>