<svg xmlns="http://www.w3.org/2000/svg" fill="none" viewBox="0 0 50 50"><rect width="24" height="8" x="7" y="8" fill="#DEBB3F" stroke="#000" stroke-width="2" rx="4"/><path fill="#DEBB3F" stroke="#000" stroke-width="2" d="M13 8h21a4 4 0 0 1 4 4v26a4 4 0 0 1-4 4H17a4 4 0 0 1-4-4V8Z"/><path fill="#DEBB3F" stroke="#000" stroke-width="2" d="M18 34h21a4 4 0 0 1 0 8H18v-8Z"/><path stroke="#000" stroke-width="2" d="M17 42a4 4 0 0 0 0-8m-4-22c0-2.2-.9-4-2-4"/><circle cx="17" cy="38" r="3" fill="#DEBB3F"/></svg>